<svg id="svg" xmlns="http://www.w3.org/2000/svg" width="100%" height="100%" viewBox="0 0 172.09 36.84">
                    <defs>
                    <style>
                        .cls-1 {
                        fill: none;
                        }
                        .cls-2 {
                        fill: black;
                        }
                        .cls-3 {
                        fill: white;
                        }
                    </style>
                    </defs>
                    <title>ATLAS Wordmark</title>
                    <line class="cls-1" x1="0" y1="36" x2="172.1" y2="36"/>   
                    <rect class="cls-1" width="41.57" height="36.84"/>
                    <rect class="cls-1" x="99.18" width="41.57" height="36.84"/>
                    <polygon class="cls-2" points="37.52 0.64 67.98 0.64 67.98 9.45 57.84 9.45 57.84 36 47.5 36 47.5 9.45 37.52 9.45 37.52 0.64"/>
                    <polygon class="cls-2" points="70.84 0.64 81.18 0.64 81.18 27.15 96.31 27.15 96.31 36 70.84 36 70.84 0.64"/>
                    <path class="cls-2" d="M140.54,24.73h10.58c.35,2.81,2.53,4.15,5.94,4.15,2,0,4.5-.79,4.5-2.92s-2.38-2.67-6.73-3.76c-5.93-1.48-13.1-3.51-13.1-11C141.73,3.07,148.35,0,156.32,0c7.31,0,14,3.07,14.19,10.78H160.27c-.29-1.93-1.68-3.16-4.5-3.16-2.27,0-3.86,1-3.86,2.47,0,2.08,3,2.37,8.31,3.66,5.94,1.43,11.87,3.76,11.87,11.27,0,7.72-6.87,11.82-15.23,11.82-9.2,0-16.17-4-16.32-12.11"/>    
                    <g class="cls-2" id="a-first" data-name="a-first"><polygon points="41.57 28.19 25.25 0.64 16.32 0.64 0 28.19 7.35 36 20.79 36 20.79 25.65 13.54 25.65 20.79 13.42 34.15 35.97 41.57 28.19"/><rect class="cls-1" width="41.57" height="36.84"/></g>    
                    <g class="cls-2" id="a-second" data-name="a-second" transform="translate(99.18 0)"><path d="M41.57,36H30.33L20.79,13.74,15.17.65H26.4ZM21.5,36l4.4-10.32H15.66l5.13-11.94H9.55L0,36Z"/><rect class="cls-1" width="41.57" height="36.84"/></g>    
                </svg>